<svg width="280" height="347" viewBox="0 0 280 347" fill="none" xmlns="http://www.w3.org/2000/svg">
<g opacity="0.6">
<mask id="mask0" mask-type="alpha" maskUnits="userSpaceOnUse" x="-193" y="54" width="439" height="441">
<ellipse cx="26.3624" cy="274.723" rx="119.806" ry="190.428" transform="rotate(-44.5416 26.3624 274.723)" fill="#4953BE"/>
</mask>
<g mask="url(#mask0)">
<rect width="248.064" height="3.70311" transform="matrix(0.51342 -0.858138 0.779404 0.626522 -29.3881 375.301)" fill="#4751C0"/>
<rect width="248.064" height="3.70311" transform="matrix(0.51342 -0.858138 0.779404 0.626522 -39.1533 367.452)" fill="#4751C0"/>
<rect width="248.064" height="3.70311" transform="matrix(0.51342 -0.858138 0.779404 0.626522 -48.9183 359.602)" fill="#4751C0"/>
<rect width="248.064" height="3.70311" transform="matrix(0.51342 -0.858138 0.779404 0.626522 -19.6229 383.151)" fill="#4751C0"/>
<rect width="248.064" height="3.70311" transform="matrix(0.51342 -0.858138 0.779404 0.626522 -9.85791 391.001)" fill="#4751C0"/>
<rect width="248.064" height="3.70311" transform="matrix(0.51342 -0.858138 0.779404 0.626522 -0.0925903 398.85)" fill="#4751C0"/>
<rect width="248.064" height="3.70311" transform="matrix(0.51342 -0.858138 0.779404 0.626522 9.67242 406.7)" fill="#4751C0"/>
<rect width="248.064" height="3.70311" transform="matrix(0.51342 -0.858138 0.779404 0.626522 35.9566 436.476)" fill="#4751C0"/>
<rect width="248.064" height="3.70311" transform="matrix(0.51342 -0.858138 0.779404 0.626522 26.1913 428.627)" fill="#4751C0"/>
<rect width="248.064" height="3.70311" transform="matrix(0.51342 -0.858138 0.779404 0.626522 16.4263 420.777)" fill="#4751C0"/>
<rect width="248.064" height="3.70311" transform="matrix(0.51342 -0.858138 0.779404 0.626522 45.7217 444.326)" fill="#4751C0"/>
<rect width="248.064" height="3.70311" transform="matrix(0.51342 -0.858138 0.779404 0.626522 55.4868 452.176)" fill="#4751C0"/>
<rect width="248.064" height="3.70311" transform="matrix(0.51342 -0.858138 0.779404 0.626522 65.2521 460.025)" fill="#4751C0"/>
<rect width="248.064" height="3.70311" transform="matrix(0.51342 -0.858138 0.779404 0.626522 75.0172 467.875)" fill="#4751C0"/>
<rect width="248.064" height="3.70311" transform="matrix(0.51342 -0.858138 0.779404 0.626522 128.08 449.593)" fill="#4751C0"/>
<rect width="248.064" height="3.70311" transform="matrix(0.51342 -0.858138 0.779404 0.626522 118.315 441.744)" fill="#4751C0"/>
<rect width="248.064" height="3.70311" transform="matrix(0.51342 -0.858138 0.779404 0.626522 108.549 433.894)" fill="#4751C0"/>
<rect width="248.064" height="3.70311" transform="matrix(0.51342 -0.858138 0.779404 0.626522 137.845 457.443)" fill="#4751C0"/>
<rect width="248.064" height="3.70311" transform="matrix(0.51342 -0.858138 0.779404 0.626522 147.61 465.293)" fill="#4751C0"/>
<rect width="248.064" height="3.70311" transform="matrix(0.51342 -0.858138 0.779404 0.626522 157.375 473.142)" fill="#4751C0"/>
<rect width="248.064" height="3.70311" transform="matrix(0.51342 -0.858138 0.779404 0.626522 167.14 480.992)" fill="#4751C0"/>
<rect width="248.064" height="3.70311" transform="matrix(0.51342 -0.858138 0.779404 0.626522 193.424 510.768)" fill="#4751C0"/>
<rect width="248.064" height="3.70311" transform="matrix(0.51342 -0.858138 0.779404 0.626522 183.659 502.919)" fill="#4751C0"/>
<rect width="248.064" height="3.70311" transform="matrix(0.51342 -0.858138 0.779404 0.626522 173.894 495.069)" fill="#4751C0"/>
<rect width="248.064" height="3.70311" transform="matrix(0.51342 -0.858138 0.779404 0.626522 203.19 518.618)" fill="#4751C0"/>
<rect width="248.064" height="3.70311" transform="matrix(0.51342 -0.858138 0.779404 0.626522 212.955 526.468)" fill="#4751C0"/>
<rect width="248.064" height="3.70311" transform="matrix(0.51342 -0.858138 0.779404 0.626522 222.72 534.318)" fill="#4751C0"/>
<rect width="248.064" height="3.70311" transform="matrix(0.51342 -0.858138 0.779404 0.626522 232.485 542.167)" fill="#4751C0"/>
<rect width="248.064" height="3.70311" transform="matrix(0.51342 -0.858138 0.779404 0.626522 -81.9299 341.337)" fill="#4751C0"/>
<rect width="248.064" height="3.70311" transform="matrix(0.51342 -0.858138 0.779404 0.626522 -91.6951 333.487)" fill="#4751C0"/>
<rect width="248.064" height="3.70311" transform="matrix(0.51342 -0.858138 0.779404 0.626522 -101.46 325.638)" fill="#4751C0"/>
<rect width="248.064" height="3.70311" transform="matrix(0.51342 -0.858138 0.779404 0.626522 -72.1648 349.187)" fill="#4751C0"/>
<rect width="248.064" height="3.70311" transform="matrix(0.51342 -0.858138 0.779404 0.626522 -62.3997 357.036)" fill="#4751C0"/>
<rect width="248.064" height="3.70311" transform="matrix(0.51342 -0.858138 0.779404 0.626522 -52.6345 364.886)" fill="#4751C0"/>
<rect width="248.064" height="3.70311" transform="matrix(0.51342 -0.858138 0.779404 0.626522 -42.8694 372.736)" fill="#4751C0"/>
<rect width="248.064" height="3.70311" transform="matrix(0.51342 -0.858138 0.779404 0.626522 -16.5852 402.512)" fill="#4751C0"/>
<rect width="248.064" height="3.70311" transform="matrix(0.51342 -0.858138 0.779404 0.626522 -26.3505 394.662)" fill="#4751C0"/>
<rect width="248.064" height="3.70311" transform="matrix(0.51342 -0.858138 0.779404 0.626522 -36.1155 386.813)" fill="#4751C0"/>
<rect width="248.064" height="3.70311" transform="matrix(0.51342 -0.858138 0.779404 0.626522 -6.82013 410.362)" fill="#4751C0"/>
<rect width="248.064" height="3.70311" transform="matrix(0.51342 -0.858138 0.779404 0.626522 2.94489 418.211)" fill="#4751C0"/>
<rect width="248.064" height="3.70311" transform="matrix(0.51342 -0.858138 0.779404 0.626522 12.7103 426.061)" fill="#4751C0"/>
<rect width="248.064" height="3.70311" transform="matrix(0.51342 -0.858138 0.779404 0.626522 22.4753 433.911)" fill="#4751C0"/>
<rect width="248.064" height="3.70311" transform="matrix(0.51342 -0.858138 0.779404 0.626522 -124.871 340.288)" fill="#4751C0"/>
</g>
</g>
</svg>
