<svg width="375" height="452" viewBox="0 0 375 452" fill="none" xmlns="http://www.w3.org/2000/svg">
<g id="Mask Group">
<mask id="mask0" mask-type="alpha" maskUnits="userSpaceOnUse" x="4" y="0" width="367" height="444">
<ellipse id="Ellipse 160" cx="187.362" cy="221.723" rx="119.806" ry="190.428" transform="rotate(-22.4132 187.362 221.723)" fill="#4953BE"/>
</mask>
<g mask="url(#mask0)">
<g id="lines">
<rect id="Rectangle 1030" width="248.064" height="3.70311" transform="matrix(0.798849 -0.601532 0.485994 0.873962 97.832 293.893)" fill="#FF6D69"/>
<rect id="Rectangle 1035" width="248.064" height="3.70311" transform="matrix(0.798849 -0.601532 0.485994 0.873962 91.743 282.943)" fill="#FF6D69"/>
<rect id="Rectangle 1036" width="248.064" height="3.70311" transform="matrix(0.798849 -0.601532 0.485994 0.873962 85.6541 271.993)" fill="#FF6D69"/>
<rect id="Rectangle 1031" width="248.064" height="3.70311" transform="matrix(0.798849 -0.601532 0.485994 0.873962 103.921 304.843)" fill="#FF6D69"/>
<rect id="Rectangle 1032" width="248.064" height="3.70311" transform="matrix(0.798849 -0.601532 0.485994 0.873962 110.01 315.792)" fill="#FF6D69"/>
<rect id="Rectangle 1033" width="248.064" height="3.70311" transform="matrix(0.798849 -0.601532 0.485994 0.873962 116.099 326.742)" fill="#FF6D69"/>
<rect id="Rectangle 1034" width="248.064" height="3.70311" transform="matrix(0.798849 -0.601532 0.485994 0.873962 122.188 337.692)" fill="#FF6D69"/>
<rect id="Rectangle 1037" width="248.064" height="3.70311" transform="matrix(0.798849 -0.601532 0.485994 0.873962 135.32 375.176)" fill="#FF6D69"/>
<rect id="Rectangle 1038" width="248.064" height="3.70311" transform="matrix(0.798849 -0.601532 0.485994 0.873962 129.231 364.226)" fill="#FF6D69"/>
<rect id="Rectangle 1039" width="248.064" height="3.70311" transform="matrix(0.798849 -0.601532 0.485994 0.873962 123.142 353.276)" fill="#FF6D69"/>
<rect id="Rectangle 1040" width="248.064" height="3.70311" transform="matrix(0.798849 -0.601532 0.485994 0.873962 141.409 386.126)" fill="#FF6D69"/>
<rect id="Rectangle 1041" width="248.064" height="3.70311" transform="matrix(0.798849 -0.601532 0.485994 0.873962 147.498 397.076)" fill="#FF6D69"/>
<rect id="Rectangle 1042" width="248.064" height="3.70311" transform="matrix(0.798849 -0.601532 0.485994 0.873962 153.587 408.026)" fill="#FF6D69"/>
<rect id="Rectangle 1043" width="248.064" height="3.70311" transform="matrix(0.798849 -0.601532 0.485994 0.873962 159.676 418.975)" fill="#FF6D69"/>
</g>
<g id="lines_2">
<rect id="Rectangle 1030_2" width="248.064" height="3.70311" transform="matrix(0.798849 -0.601532 0.485994 0.873962 215.717 422.028)" fill="#FF6D69"/>
<rect id="Rectangle 1035_2" width="248.064" height="3.70311" transform="matrix(0.798849 -0.601532 0.485994 0.873962 209.628 411.078)" fill="#FF6D69"/>
<rect id="Rectangle 1036_2" width="248.064" height="3.70311" transform="matrix(0.798849 -0.601532 0.485994 0.873962 203.539 400.128)" fill="#FF6D69"/>
<rect id="Rectangle 1031_2" width="248.064" height="3.70311" transform="matrix(0.798849 -0.601532 0.485994 0.873962 221.806 432.978)" fill="#FF6D69"/>
<rect id="Rectangle 1032_2" width="248.064" height="3.70311" transform="matrix(0.798849 -0.601532 0.485994 0.873962 227.895 443.928)" fill="#FF6D69"/>
<rect id="Rectangle 1033_2" width="248.064" height="3.70311" transform="matrix(0.798849 -0.601532 0.485994 0.873962 233.984 454.878)" fill="#FF6D69"/>
<rect id="Rectangle 1034_2" width="248.064" height="3.70311" transform="matrix(0.798849 -0.601532 0.485994 0.873962 240.073 465.828)" fill="#FF6D69"/>
<rect id="Rectangle 1037_2" width="248.064" height="3.70311" transform="matrix(0.798849 -0.601532 0.485994 0.873962 253.205 503.311)" fill="#FF6D69"/>
<rect id="Rectangle 1038_2" width="248.064" height="3.70311" transform="matrix(0.798849 -0.601532 0.485994 0.873962 247.115 492.361)" fill="#FF6D69"/>
<rect id="Rectangle 1039_2" width="248.064" height="3.70311" transform="matrix(0.798849 -0.601532 0.485994 0.873962 241.026 481.412)" fill="#FF6D69"/>
<rect id="Rectangle 1040_2" width="248.064" height="3.70311" transform="matrix(0.798849 -0.601532 0.485994 0.873962 259.293 514.261)" fill="#FF6D69"/>
<rect id="Rectangle 1041_2" width="248.064" height="3.70311" transform="matrix(0.798849 -0.601532 0.485994 0.873962 265.382 525.211)" fill="#FF6D69"/>
<rect id="Rectangle 1042_2" width="248.064" height="3.70311" transform="matrix(0.798849 -0.601532 0.485994 0.873962 271.472 536.161)" fill="#FF6D69"/>
<rect id="Rectangle 1043_2" width="248.064" height="3.70311" transform="matrix(0.798849 -0.601532 0.485994 0.873962 277.561 547.111)" fill="#FF6D69"/>
</g>
<g id="lines_3">
<rect id="Rectangle 1030_3" width="248.064" height="3.70311" transform="matrix(0.798849 -0.601532 0.485994 0.873962 61.9541 242.638)" fill="#FF6D69"/>
<rect id="Rectangle 1035_3" width="248.064" height="3.70311" transform="matrix(0.798849 -0.601532 0.485994 0.873962 55.865 231.689)" fill="#FF6D69"/>
<rect id="Rectangle 1036_3" width="248.064" height="3.70311" transform="matrix(0.798849 -0.601532 0.485994 0.873962 49.7761 220.739)" fill="#FF6D69"/>
<rect id="Rectangle 1031_3" width="248.064" height="3.70311" transform="matrix(0.798849 -0.601532 0.485994 0.873962 68.0431 253.588)" fill="#FF6D69"/>
<rect id="Rectangle 1032_3" width="248.064" height="3.70311" transform="matrix(0.798849 -0.601532 0.485994 0.873962 74.1321 264.538)" fill="#FF6D69"/>
<rect id="Rectangle 1033_3" width="248.064" height="3.70311" transform="matrix(0.798849 -0.601532 0.485994 0.873962 80.2212 275.488)" fill="#FF6D69"/>
<rect id="Rectangle 1034_3" width="248.064" height="3.70311" transform="matrix(0.798849 -0.601532 0.485994 0.873962 86.3102 286.438)" fill="#FF6D69"/>
<rect id="Rectangle 1037_3" width="248.064" height="3.70311" transform="matrix(0.798849 -0.601532 0.485994 0.873962 99.4421 323.922)" fill="#FF6D69"/>
<rect id="Rectangle 1038_3" width="248.064" height="3.70311" transform="matrix(0.798849 -0.601532 0.485994 0.873962 93.3529 312.972)" fill="#FF6D69"/>
<rect id="Rectangle 1039_3" width="248.064" height="3.70311" transform="matrix(0.798849 -0.601532 0.485994 0.873962 87.264 302.022)" fill="#FF6D69"/>
<rect id="Rectangle 1040_3" width="248.064" height="3.70311" transform="matrix(0.798849 -0.601532 0.485994 0.873962 105.531 334.872)" fill="#FF6D69"/>
<rect id="Rectangle 1041_3" width="248.064" height="3.70311" transform="matrix(0.798849 -0.601532 0.485994 0.873962 111.62 345.821)" fill="#FF6D69"/>
<rect id="Rectangle 1042_3" width="248.064" height="3.70311" transform="matrix(0.798849 -0.601532 0.485994 0.873962 117.709 356.771)" fill="#FF6D69"/>
<rect id="Rectangle 1043_3" width="248.064" height="3.70311" transform="matrix(0.798849 -0.601532 0.485994 0.873962 123.798 367.721)" fill="#FF6D69"/>
</g>
<g id="lines_4">
<rect id="Rectangle 1030_4" width="248.064" height="3.70311" transform="matrix(0.798849 -0.601532 0.485994 0.873962 -39.2728 100.408)" fill="#FF6D69"/>
<rect id="Rectangle 1035_4" width="248.064" height="3.70311" transform="matrix(0.798849 -0.601532 0.485994 0.873962 -45.3619 89.4584)" fill="#FF6D69"/>
<rect id="Rectangle 1036_4" width="248.064" height="3.70311" transform="matrix(0.798849 -0.601532 0.485994 0.873962 -51.4508 78.5085)" fill="#FF6D69"/>
<rect id="Rectangle 1031_4" width="248.064" height="3.70311" transform="matrix(0.798849 -0.601532 0.485994 0.873962 -33.1838 111.358)" fill="#FF6D69"/>
<rect id="Rectangle 1032_4" width="248.064" height="3.70311" transform="matrix(0.798849 -0.601532 0.485994 0.873962 -27.0948 122.308)" fill="#FF6D69"/>
<rect id="Rectangle 1033_4" width="248.064" height="3.70311" transform="matrix(0.798849 -0.601532 0.485994 0.873962 -21.0057 133.258)" fill="#FF6D69"/>
<rect id="Rectangle 1034_4" width="248.064" height="3.70311" transform="matrix(0.798849 -0.601532 0.485994 0.873962 -14.9167 144.208)" fill="#FF6D69"/>
<rect id="Rectangle 1037_4" width="248.064" height="3.70311" transform="matrix(0.798849 -0.601532 0.485994 0.873962 -1.78479 181.691)" fill="#FF6D69"/>
<rect id="Rectangle 1038_4" width="248.064" height="3.70311" transform="matrix(0.798849 -0.601532 0.485994 0.873962 -7.87402 170.742)" fill="#FF6D69"/>
<rect id="Rectangle 1039_4" width="248.064" height="3.70311" transform="matrix(0.798849 -0.601532 0.485994 0.873962 -13.9629 159.792)" fill="#FF6D69"/>
<rect id="Rectangle 1040_4" width="248.064" height="3.70311" transform="matrix(0.798849 -0.601532 0.485994 0.873962 4.30408 192.641)" fill="#FF6D69"/>
<rect id="Rectangle 1041_4" width="248.064" height="3.70311" transform="matrix(0.798849 -0.601532 0.485994 0.873962 10.3931 203.591)" fill="#FF6D69"/>
<rect id="Rectangle 1042_4" width="248.064" height="3.70311" transform="matrix(0.798849 -0.601532 0.485994 0.873962 16.4822 214.541)" fill="#FF6D69"/>
<rect id="Rectangle 1043_4" width="248.064" height="3.70311" transform="matrix(0.798849 -0.601532 0.485994 0.873962 22.5712 225.491)" fill="#FF6D69"/>
</g>
</g>
</g>
</svg>
