<svg width="285" height="272" viewBox="0 0 285 272" fill="none" xmlns="http://www.w3.org/2000/svg">
<g opacity="0.6">
<mask id="mask0" mask-type="alpha" maskUnits="userSpaceOnUse" x="-112" y="0" width="397" height="450">
<ellipse cx="86.6375" cy="224.907" rx="119.806" ry="190.428" transform="rotate(-29.2994 86.6375 224.907)" fill="#4953BE"/>
</mask>
<g mask="url(#mask0)">
<rect width="248.064" height="3.70311" transform="matrix(0.798849 -0.601532 0.485994 0.873962 -2.89282 297.077)" fill="white"/>
<rect width="248.064" height="3.70311" transform="matrix(0.798849 -0.601532 0.485994 0.873962 -8.98193 286.127)" fill="white"/>
<rect width="248.064" height="3.70311" transform="matrix(0.798849 -0.601532 0.485994 0.873962 -15.0708 275.177)" fill="white"/>
<rect width="248.064" height="3.70311" transform="matrix(0.798849 -0.601532 0.485994 0.873962 3.19629 308.026)" fill="white"/>
<rect width="248.064" height="3.70311" transform="matrix(0.798849 -0.601532 0.485994 0.873962 9.28516 318.976)" fill="white"/>
<rect width="248.064" height="3.70311" transform="matrix(0.798849 -0.601532 0.485994 0.873962 15.3743 329.926)" fill="white"/>
<rect width="248.064" height="3.70311" transform="matrix(0.798849 -0.601532 0.485994 0.873962 21.4634 340.876)" fill="white"/>
<rect width="248.064" height="3.70311" transform="matrix(0.798849 -0.601532 0.485994 0.873962 34.5952 378.36)" fill="white"/>
<rect width="248.064" height="3.70311" transform="matrix(0.798849 -0.601532 0.485994 0.873962 28.5061 367.41)" fill="white"/>
<rect width="248.064" height="3.70311" transform="matrix(0.798849 -0.601532 0.485994 0.873962 22.417 356.46)" fill="white"/>
<rect width="248.064" height="3.70311" transform="matrix(0.798849 -0.601532 0.485994 0.873962 40.6841 389.31)" fill="white"/>
<rect width="248.064" height="3.70311" transform="matrix(0.798849 -0.601532 0.485994 0.873962 46.7729 400.259)" fill="white"/>
<rect width="248.064" height="3.70311" transform="matrix(0.798849 -0.601532 0.485994 0.873962 52.8623 411.209)" fill="white"/>
<rect width="248.064" height="3.70311" transform="matrix(0.798849 -0.601532 0.485994 0.873962 108.903 414.262)" fill="white"/>
<rect width="248.064" height="3.70311" transform="matrix(0.798849 -0.601532 0.485994 0.873962 102.814 403.312)" fill="white"/>
<rect width="248.064" height="3.70311" transform="matrix(0.798849 -0.601532 0.485994 0.873962 -38.7708 245.822)" fill="white"/>
<rect width="248.064" height="3.70311" transform="matrix(0.798849 -0.601532 0.485994 0.873962 -44.8599 234.873)" fill="white"/>
<rect width="248.064" height="3.70311" transform="matrix(0.798849 -0.601532 0.485994 0.873962 -50.9487 223.923)" fill="white"/>
<rect width="248.064" height="3.70311" transform="matrix(0.798849 -0.601532 0.485994 0.873962 -32.6816 256.772)" fill="white"/>
<rect width="248.064" height="3.70311" transform="matrix(0.798849 -0.601532 0.485994 0.873962 -26.5928 267.722)" fill="white"/>
<rect width="248.064" height="3.70311" transform="matrix(0.798849 -0.601532 0.485994 0.873962 -20.5037 278.672)" fill="white"/>
<rect width="248.064" height="3.70311" transform="matrix(0.798849 -0.601532 0.485994 0.873962 -14.4148 289.622)" fill="white"/>
<rect width="248.064" height="3.70311" transform="matrix(0.798849 -0.601532 0.485994 0.873962 -1.28271 327.106)" fill="white"/>
<rect width="248.064" height="3.70311" transform="matrix(0.798849 -0.601532 0.485994 0.873962 -7.37183 316.156)" fill="white"/>
<rect width="248.064" height="3.70311" transform="matrix(0.798849 -0.601532 0.485994 0.873962 -13.4609 305.206)" fill="white"/>
<rect width="248.064" height="3.70311" transform="matrix(0.798849 -0.601532 0.485994 0.873962 4.80615 338.055)" fill="white"/>
<rect width="248.064" height="3.70311" transform="matrix(0.798849 -0.601532 0.485994 0.873962 10.895 349.005)" fill="white"/>
<rect width="248.064" height="3.70311" transform="matrix(0.798849 -0.601532 0.485994 0.873962 16.9844 359.955)" fill="white"/>
<rect width="248.064" height="3.70311" transform="matrix(0.798849 -0.601532 0.485994 0.873962 23.0732 370.905)" fill="white"/>
<rect width="248.064" height="3.70311" transform="matrix(0.798849 -0.601532 0.485994 0.873962 -139.998 103.592)" fill="white"/>
<rect width="248.064" height="3.70311" transform="matrix(0.798849 -0.601532 0.485994 0.873962 -146.087 92.6422)" fill="white"/>
<rect width="248.064" height="3.70311" transform="matrix(0.798849 -0.601532 0.485994 0.873962 -152.176 81.6924)" fill="white"/>
<rect width="248.064" height="3.70311" transform="matrix(0.798849 -0.601532 0.485994 0.873962 -133.908 114.542)" fill="white"/>
<rect width="248.064" height="3.70311" transform="matrix(0.798849 -0.601532 0.485994 0.873962 -127.82 125.492)" fill="white"/>
<rect width="248.064" height="3.70311" transform="matrix(0.798849 -0.601532 0.485994 0.873962 -121.73 136.442)" fill="white"/>
<rect width="248.064" height="3.70311" transform="matrix(0.798849 -0.601532 0.485994 0.873962 -115.642 147.391)" fill="white"/>
<rect width="248.064" height="3.70311" transform="matrix(0.798849 -0.601532 0.485994 0.873962 -102.51 184.875)" fill="white"/>
<rect width="248.064" height="3.70311" transform="matrix(0.798849 -0.601532 0.485994 0.873962 -108.599 173.925)" fill="white"/>
<rect width="248.064" height="3.70311" transform="matrix(0.798849 -0.601532 0.485994 0.873962 -114.688 162.976)" fill="white"/>
<rect width="248.064" height="3.70311" transform="matrix(0.798849 -0.601532 0.485994 0.873962 -96.4207 195.825)" fill="white"/>
<rect width="248.064" height="3.70311" transform="matrix(0.798849 -0.601532 0.485994 0.873962 -90.3318 206.775)" fill="white"/>
<rect width="248.064" height="3.70311" transform="matrix(0.798849 -0.601532 0.485994 0.873962 -84.2424 217.725)" fill="white"/>
<rect width="248.064" height="3.70311" transform="matrix(0.798849 -0.601532 0.485994 0.873962 -78.1536 228.675)" fill="white"/>
</g>
</g>
</svg>
