<svg width="35" height="35" viewBox="0 0 35 35" fill="none" xmlns="http://www.w3.org/2000/svg">
<path d="M17.5 35C27.165 35 35 27.165 35 17.5C35 7.83502 27.165 0 17.5 0C7.83502 0 0 7.83502 0 17.5C0 27.165 7.83502 35 17.5 35Z" fill="#F7A491"/>
<path d="M17.5 32.4486C9.257 32.4486 2.58411 25.743 2.58411 17.5327C2.58411 9.32242 9.257 2.58411 17.5 2.58411C25.743 2.58411 32.4159 9.28971 32.4159 17.5C32.4159 25.7103 25.743 32.4486 17.5 32.4486ZM17.5 3.72897C9.91121 3.72897 3.72897 9.91121 3.72897 17.5C3.72897 25.0888 9.91121 31.271 17.5 31.271C25.0888 31.271 31.271 25.0888 31.271 17.5C31.271 9.91121 25.0888 3.72897 17.5 3.72897Z" fill="#C4886E"/>
<path d="M17.4999 7.81775L19.6588 14.5234H26.6915L20.9999 18.6449L23.1915 25.3178L17.4999 21.1963L11.8083 25.3178L13.9999 18.6449L8.30835 14.5234H15.3411L17.4999 7.81775Z" fill="white"/>
</svg>
