<svg width="52" height="52" viewBox="0 0 52 52" fill="none" xmlns="http://www.w3.org/2000/svg">
<mask id="mask0" mask-type="alpha" maskUnits="userSpaceOnUse" x="0" y="0" width="52" height="52">
<circle cx="26" cy="26" r="26" fill="#FFFBFA"/>
</mask>
<g mask="url(#mask0)">
<path d="M12.5095 17.9875C13.7301 10.0912 20.8663 4.41956 28.3154 8.2424C30.0056 9.08844 32.2591 10.8432 33.4171 12.3473C36.547 16.3581 37.3608 21.3403 40.5846 25.2572C39.3952 26.1659 37.9555 27.1059 36.234 28.0147L34.2309 25.3199L34.9195 28.6727C29.9117 31.0855 22.8381 33.0596 13.1668 32.9969C11.9774 27.5133 11.8835 22.1864 12.5095 17.9875Z" fill="#0E2E35"/>
<path d="M27.3454 25.7896C27.3454 25.7896 27.3767 26.009 27.4393 26.385C27.7523 28.1397 29.0042 33.968 29.8493 35.5661C30.8821 37.5088 26.3438 43.6818 22.0246 42.9297C20.7413 42.7104 23.12 37.2581 22.9948 36.6941C22.7757 35.5974 22.4627 34.0933 22.1811 32.5266C22.0246 31.6492 21.8368 30.7718 21.6803 29.9258C21.2108 27.5757 20.8352 25.6329 20.8352 25.6329L27.3454 25.7896Z" fill="#F8B2A2"/>
<path d="M22.9631 10.937C22.9631 10.937 26.0304 10.5923 27.9709 13.0678C29.9114 15.5432 31.9772 23.2829 27.1884 27.4818C22.3997 31.6806 17.6736 26.9178 16.985 21.9042C16.2651 16.8593 16.0147 10.749 22.9631 10.937Z" fill="#F8B2A2"/>
<path d="M22.6189 10.1225C22.6189 10.1225 26.7191 17.4548 29.6611 17.7995C32.6032 18.1442 32.9788 22.0297 32.9788 22.0297C32.9788 22.0297 31.9147 13.0366 29.0352 11.3132C26.1244 9.55847 22.6189 10.1225 22.6189 10.1225Z" fill="#0E2E35"/>
<path fill-rule="evenodd" clip-rule="evenodd" d="M42.3377 39.922C45.0294 43.8075 50.2563 56.1847 50.2563 56.1847L37.5176 58.1275C37.5176 58.1275 36.9378 56.6021 36.1222 54.3944C35.0437 58.9846 33.3937 64.3733 32.0453 68.777C30.8862 72.5624 29.95 75.6199 29.7912 76.8167C29.2591 80.8275 32.4516 91.4814 32.4516 91.4814C32.4516 91.4814 15.3624 94.9282 10.4485 91.7007C10.4485 91.7007 9.97812 66.2147 10.3642 60.7989C9.60452 60.5167 8.86955 60.2618 8.19031 60.07C9.00408 56.2785 10.3186 52.1423 11.2889 49.1969C15.2326 37.1956 19.6457 37.697 19.6457 37.697L18.8967 43.2349C22.003 42.5376 26.5361 42.0351 26.5361 42.0351C26.5361 42.0351 29.1949 41.8637 31.9355 42.4246C31.5164 41.0905 31.1953 39.9619 31.0388 39.2013C30.1624 34.9711 38.9574 35.0964 42.3377 39.922Z" fill="#B5BBF5"/>
</g>
</svg>
