<svg width="35" height="37" viewBox="0 0 35 37" fill="none" xmlns="http://www.w3.org/2000/svg">
<path d="M12.6897 18.9816C2.55592 14.2258 -0.00353104 9.22079 0.974471 6.10564C1.7652 3.63429 4.61597 2.45054 8.25747 3.1151L7.77887 5.77336C5.59397 5.37877 3.88767 5.85643 3.55473 6.93635C3.01371 8.61853 5.32346 12.5644 13.8342 16.5518L12.6897 18.9816Z" fill="#F7A491"/>
<path d="M22.2408 18.9816L21.0963 16.531C29.607 12.5436 31.9168 8.59779 31.3757 6.91562C31.022 5.8357 29.3365 5.37881 27.1516 5.75263L26.673 3.09437C30.3145 2.45057 33.1653 3.63433 33.956 6.08491C34.9548 9.22082 32.3954 14.2258 22.2408 18.9816Z" fill="#F7A491"/>
<path d="M18.7242 15.5342H16.2272V29.4901H18.7242V15.5342Z" fill="#F7A491"/>
<path d="M4.11658 0L10.6921 17.8186C11.7325 20.643 14.4376 22.5329 17.4549 22.5329C20.4721 22.5329 23.1772 20.6638 24.2176 17.8186L30.7931 0H4.11658Z" fill="#F7A491"/>
<path d="M18.9322 29.49H15.9982C13.3347 29.49 11.1914 31.6291 11.1914 34.2873H23.739C23.739 31.6291 21.5957 29.49 18.9322 29.49Z" fill="#F7A491"/>
<path d="M24.4572 36.7544V34.2623H10.4738V36.7544H24.4572Z" fill="#FF7C7C"/>
<path d="M17.4756 2.88666L18.9738 7.49707H23.8222L19.8894 10.3422L21.4084 14.9527L17.4756 12.1075L13.5428 14.9527L15.041 10.3422L11.1082 7.49707H15.9774L17.4756 2.88666Z" fill="#FFFBFA"/>
</svg>